<?xml version="1.0" encoding="UTF-8"?>
<!DOCTYPE svg PUBLIC "-//W3C//DTD SVG 1.1//EN" "http://www.w3.org/Graphics/SVG/1.1/DTD/svg11.dtd">
<svg xmlns="http://www.w3.org/2000/svg" version="1.1" width="326px" height="313px" style="shape-rendering:geometricPrecision; text-rendering:geometricPrecision; image-rendering:optimizeQuality; fill-rule:evenodd; clip-rule:evenodd" xmlns:xlink="http://www.w3.org/1999/xlink">
<g><path style="opacity:1" fill="#027ffc" d="M 168.5,18.5 C 178.872,19.5748 189.205,20.9081 199.5,22.5C 199.833,23.5 200.5,24.1667 201.5,24.5C 202.589,26.1171 204.256,26.9504 206.5,27C 204.071,27.4512 203.904,28.2845 206,29.5C 212.23,27.5182 217.896,28.5182 223,32.5C 223.483,33.448 223.649,34.448 223.5,35.5C 225.5,35.5 227.5,35.5 229.5,35.5C 232.108,35.6056 234.108,36.7723 235.5,39C 236.793,39.49 238.127,39.6567 239.5,39.5C 239.833,39.5 240.167,39.5 240.5,39.5C 241.13,42.7046 243.13,44.3712 246.5,44.5C 246.5,45.5 246.5,46.5 246.5,47.5C 248.5,48.1667 250.5,48.8333 252.5,49.5C 253.5,49.8333 254.167,50.5 254.5,51.5C 255.038,53.1172 255.371,54.7839 255.5,56.5C 256.552,56.3505 257.552,56.5172 258.5,57C 260.709,60.0437 263.375,62.5437 266.5,64.5C 266.357,66.2624 266.691,67.9291 267.5,69.5C 273.772,75.7036 278.272,83.037 281,91.5C 283.061,93.4063 285.228,95.073 287.5,96.5C 287.875,100.871 288.541,105.204 289.5,109.5C 291.767,113.014 293.434,116.681 294.5,120.5C 295.678,125.721 296.678,131.054 297.5,136.5C 298.155,152.687 296.822,168.687 293.5,184.5C 292.692,184.808 292.025,185.308 291.5,186C 293.066,192.568 291.566,198.402 287,203.5C 286.51,204.793 286.343,206.127 286.5,207.5C 283.599,212.395 281.599,217.728 280.5,223.5C 277.981,223.848 276.147,225.181 275,227.5C 273.208,230.747 271.708,234.081 270.5,237.5C 269.5,237.5 268.5,237.5 267.5,237.5C 267.271,239.433 266.438,241.1 265,242.5C 264.667,241.833 264.333,241.167 264,240.5C 263.781,241.938 263.281,243.271 262.5,244.5C 261.325,243.145 260.325,243.312 259.5,245C 260.337,246.011 260.67,247.178 260.5,248.5C 259.167,248.5 257.833,248.5 256.5,248.5C 256.5,249.5 256.5,250.5 256.5,251.5C 255.167,251.5 253.833,251.5 252.5,251.5C 252.5,253.5 252.5,255.5 252.5,257.5C 252.167,257.5 251.833,257.5 251.5,257.5C 248.813,257.336 246.146,257.503 243.5,258C 244.38,259.356 244.714,260.856 244.5,262.5C 242.833,262.5 241.167,262.5 239.5,262.5C 238.009,264.041 236.676,265.875 235.5,268C 233.866,268.494 232.199,268.66 230.5,268.5C 230.5,269.5 230.5,270.5 230.5,271.5C 227.265,273.567 223.598,274.901 219.5,275.5C 218.873,276.417 218.539,277.417 218.5,278.5C 218.167,278.5 217.833,278.5 217.5,278.5C 211.147,280.173 204.814,282.006 198.5,284C 197.944,284.383 197.611,284.883 197.5,285.5C 183.583,287.597 169.583,288.597 155.5,288.5C 150.75,286.969 145.75,286.302 140.5,286.5C 138.485,285.076 136.152,284.41 133.5,284.5C 133.047,283.542 132.381,282.708 131.5,282C 125.997,281.655 121.33,279.821 117.5,276.5C 117.047,275.542 116.381,274.708 115.5,274C 116.167,273.667 116.833,273.333 117.5,273C 116.044,272.577 115.544,271.744 116,270.5C 116.654,271.696 117.154,271.696 117.5,270.5C 116.975,269.808 116.308,269.308 115.5,269C 119.093,269.237 122.426,270.404 125.5,272.5C 126.298,272.043 126.631,271.376 126.5,270.5C 128.877,270.784 131.044,270.784 133,270.5C 133.273,268.671 134.107,267.171 135.5,266C 133.984,264.103 133.317,261.936 133.5,259.5C 137.131,259.16 140.464,259.994 143.5,262C 150.679,262.821 157.679,262.655 164.5,261.5C 166.5,261.5 168.5,261.5 170.5,261.5C 179.072,261.058 187.406,260.225 195.5,259C 203.303,255.516 210.97,251.849 218.5,248C 219.989,246.532 221.323,245.032 222.5,243.5C 226.241,244.401 228.241,243.068 228.5,239.5C 230.5,239.5 231.5,238.5 231.5,236.5C 234.81,236.539 237.476,235.206 239.5,232.5C 240.736,231.754 242.07,231.421 243.5,231.5C 243.5,230.167 243.5,228.833 243.5,227.5C 244.5,227.5 245.5,227.5 246.5,227.5C 245.888,223.124 247.054,222.457 250,225.5C 250.5,224.333 251.333,223.5 252.5,223C 251.409,220.936 251.242,218.769 252,216.5C 254.621,214.049 256.121,211.049 256.5,207.5C 257.906,207.027 258.573,206.027 258.5,204.5C 259.525,204.103 259.692,203.437 259,202.5C 258.333,203.833 257.667,203.833 257,202.5C 255.837,204.285 255.17,206.285 255,208.5C 253.736,210.607 251.903,211.607 249.5,211.5C 249.5,212.5 249.5,213.5 249.5,214.5C 249.5,214.833 249.5,215.167 249.5,215.5C 247.952,215.179 247.285,214.179 247.5,212.5C 245.712,212.785 244.045,212.452 242.5,211.5C 243.63,210.378 244.297,209.044 244.5,207.5C 244.5,206.833 244.5,206.167 244.5,205.5C 244.833,204.5 245.5,203.833 246.5,203.5C 248.312,203.229 249.978,202.562 251.5,201.5C 251.167,200.833 250.833,200.167 250.5,199.5C 253.557,195.16 256.057,190.494 258,185.5C 258.708,184.619 259.542,183.953 260.5,183.5C 262.018,179.434 262.851,175.101 263,170.5C 263.333,160.833 263.667,151.167 264,141.5C 264.422,139.645 264.922,137.811 265.5,136C 265.37,134.941 264.87,134.108 264,133.5C 263.71,135.044 263.044,136.377 262,137.5C 261.963,135.026 261.13,133.026 259.5,131.5C 260.589,124.92 259.089,118.92 255,113.5C 255.213,107.617 253.047,102.951 248.5,99.5C 247.313,97.9275 246.313,96.2608 245.5,94.5C 244.648,91.7766 243.481,89.11 242,86.5C 240.67,85.4178 239.17,84.7512 237.5,84.5C 237.512,81.858 236.179,80.5246 233.5,80.5C 233.446,78.368 232.446,77.0347 230.5,76.5C 230.179,74.9519 229.179,74.2852 227.5,74.5C 226.5,74.1667 225.833,73.5 225.5,72.5C 224.368,67.2516 221.035,64.9182 215.5,65.5C 210.457,60.7068 204.457,58.0401 197.5,57.5C 197.167,57.5 196.833,57.5 196.5,57.5C 194.383,55.3455 191.716,54.3455 188.5,54.5C 188.167,54.5 187.833,54.5 187.5,54.5C 186.911,52.6481 186.244,50.8148 185.5,49C 179.156,47.3014 172.823,46.8014 166.5,47.5C 165.833,47.5 165.167,47.5 164.5,47.5C 151.696,47.6086 139.029,48.7753 126.5,51C 121.604,54.1216 116.604,56.9549 111.5,59.5C 108.01,61.3738 104.344,63.0405 100.5,64.5C 96.6906,65.0713 93.3573,66.7379 90.5,69.5C 89.8333,69.1667 89.1667,68.8333 88.5,68.5C 87.5258,70.7427 87.1924,73.076 87.5,75.5C 87.5,76.1667 87.1667,76.5 86.5,76.5C 85.1667,76.5 83.8333,76.5 82.5,76.5C 82.1667,78.5 81.8333,80.5 81.5,82.5C 79.5,82.5 77.5,82.5 75.5,82.5C 73.038,85.3344 71.3714,88.6677 70.5,92.5C 67.9162,93.0483 66.9162,94.715 67.5,97.5C 66.5084,97.3284 65.8417,97.6618 65.5,98.5C 63.5486,100.48 62.0486,102.813 61,105.5C 60.187,107.436 59.687,109.436 59.5,111.5C 58.8333,112.833 58.1667,114.167 57.5,115.5C 53.7881,123.008 51.6215,131.008 51,139.5C 49.9887,140.337 48.8221,140.67 47.5,140.5C 47.1736,149.349 47.507,158.016 48.5,166.5C 49.1667,167.167 49.8333,167.833 50.5,168.5C 51.1499,168.196 51.8165,167.863 52.5,167.5C 53.1719,168.949 53.8386,170.282 54.5,171.5C 54.5,172.167 54.8333,172.5 55.5,172.5C 55.7286,179.515 56.2286,186.515 57,193.5C 57.3768,194.942 58.2101,195.942 59.5,196.5C 60.038,198.117 60.3713,199.784 60.5,201.5C 60.7852,203.288 60.4519,204.955 59.5,206.5C 58.8076,205.975 58.3076,205.308 58,204.5C 56.3903,206.731 54.557,208.731 52.5,210.5C 51.8333,209.5 51.1667,208.5 50.5,207.5C 49.914,207.709 49.414,208.043 49,208.5C 48.7805,206.027 47.6138,204.36 45.5,203.5C 44.7321,202.737 44.2321,201.737 44,200.5C 43.3292,199.748 42.4959,199.414 41.5,199.5C 41.5,199.167 41.5,198.833 41.5,198.5C 41.5762,194.616 40.9095,190.95 39.5,187.5C 39.6923,184.191 38.3589,181.691 35.5,180C 35.8333,179.667 36.1667,179.333 36.5,179C 35.4782,176.455 34.3116,173.955 33,171.5C 31.7615,159.856 30.9282,148.189 30.5,136.5C 28.8762,136.36 27.7096,137.027 27,138.5C 25.8177,147.796 25.3177,157.13 25.5,166.5C 25.5,166.833 25.5,167.167 25.5,167.5C 24.6762,171.312 24.1762,175.312 24,179.5C 23.3848,177.884 22.3848,176.551 21,175.5C 19.6918,163.539 19.1918,151.539 19.5,139.5C 19.5,139.167 19.5,138.833 19.5,138.5C 20.6361,132.359 21.3028,126.026 21.5,119.5C 21.5,119.167 21.5,118.833 21.5,118.5C 23.2453,114.8 24.2453,110.8 24.5,106.5C 24.5,106.167 24.5,105.833 24.5,105.5C 26.2503,104.341 27.2503,102.674 27.5,100.5C 28.983,98.9062 30.483,97.2395 32,95.5C 33.6894,89.4876 35.8561,83.821 38.5,78.5C 39.9063,78.0269 40.573,77.0269 40.5,75.5C 41.9063,75.0269 42.573,74.0269 42.5,72.5C 44.8367,70.3336 47.3367,68.3336 50,66.5C 51.8793,64.4732 53.046,62.1398 53.5,59.5C 57.0165,57.6641 60.0165,54.9974 62.5,51.5C 62.8333,50.5 63.5,49.8333 64.5,49.5C 69.1526,46.1704 74.1526,43.337 79.5,41C 82.0592,39.492 83.7259,37.3253 84.5,34.5C 84.8417,33.6618 85.5084,33.3284 86.5,33.5C 88.2915,33.634 89.9582,33.3007 91.5,32.5C 94.3128,32.4519 96.9795,31.7853 99.5,30.5C 100.736,31.2458 102.07,31.5792 103.5,31.5C 103.5,30.1667 103.5,28.8333 103.5,27.5C 106.93,27.1065 110.096,27.7732 113,29.5C 112.621,27.925 112.788,26.425 113.5,25C 121.518,21.9229 129.852,20.0896 138.5,19.5C 148.478,18.5015 158.478,18.1681 168.5,18.5 Z M 193.5,144.5 C 194.167,145.5 194.833,146.5 195.5,147.5C 195.517,149.565 195.85,151.565 196.5,153.5C 195.448,155.256 193.781,155.923 191.5,155.5C 191.5,154.5 191.5,153.5 191.5,152.5C 192.531,150.039 193.198,147.373 193.5,144.5 Z"/></g>
<g><path style="opacity:0.871" fill="#5d9bdf" d="M 199.5,22.5 C 189.205,20.9081 178.872,19.5748 168.5,18.5C 163.177,17.8339 157.677,17.5006 152,17.5C 142.093,17.4306 132.26,18.0973 122.5,19.5C 141.905,14.7859 161.572,14.2859 181.5,18C 187.778,18.9028 193.778,20.4028 199.5,22.5 Z"/></g>
<g><path style="opacity:1" fill="#0d7deb" d="M 168.5,18.5 C 158.478,18.1681 148.478,18.5015 138.5,19.5C 129.852,20.0896 121.518,21.9229 113.5,25C 112.788,26.425 112.621,27.925 113,29.5C 110.096,27.7732 106.93,27.1065 103.5,27.5C 103.5,28.8333 103.5,30.1667 103.5,31.5C 102.07,31.5792 100.736,31.2458 99.5,30.5C 96.9795,31.7853 94.3128,32.4519 91.5,32.5C 93.297,31.607 94.6304,30.2737 95.5,28.5C 98.491,28.8337 100.824,27.8337 102.5,25.5C 104.527,25.6621 106.527,25.4955 108.5,25C 113.266,22.8661 117.933,21.0328 122.5,19.5C 132.26,18.0973 142.093,17.4306 152,17.5C 157.677,17.5006 163.177,17.8339 168.5,18.5 Z"/></g>
<g><path style="opacity:0.659" fill="#5494d9" d="M 122.5,19.5 C 117.933,21.0328 113.266,22.8661 108.5,25C 106.527,25.4955 104.527,25.6621 102.5,25.5C 108.779,22.521 115.446,20.521 122.5,19.5 Z"/></g>
<g><path style="opacity:0.796" fill="#67a3df" d="M 199.5,22.5 C 202.152,22.4095 204.485,23.0762 206.5,24.5C 204.833,24.5 203.167,24.5 201.5,24.5C 200.5,24.1667 199.833,23.5 199.5,22.5 Z"/></g>
<g><path style="opacity:0.788" fill="#5597d5" d="M 102.5,25.5 C 100.824,27.8337 98.491,28.8337 95.5,28.5C 97.5093,26.9348 99.8427,25.9348 102.5,25.5 Z"/></g>
<g><path style="opacity:1" fill="#408aea" d="M 201.5,24.5 C 203.167,24.5 204.833,24.5 206.5,24.5C 212.157,25.4221 217.49,27.0888 222.5,29.5C 224.647,31.7368 226.98,33.7368 229.5,35.5C 227.5,35.5 225.5,35.5 223.5,35.5C 223.649,34.448 223.483,33.448 223,32.5C 217.896,28.5182 212.23,27.5182 206,29.5C 203.904,28.2845 204.071,27.4512 206.5,27C 204.256,26.9504 202.589,26.1171 201.5,24.5 Z"/></g>
<g><path style="opacity:0.671" fill="#64a0dd" d="M 222.5,29.5 C 228.692,32.0441 234.359,35.3774 239.5,39.5C 238.127,39.6567 236.793,39.49 235.5,39C 234.108,36.7723 232.108,35.6056 229.5,35.5C 226.98,33.7368 224.647,31.7368 222.5,29.5 Z"/></g>
<g><path style="opacity:0.969" fill="#418cd9" d="M 95.5,28.5 C 94.6304,30.2737 93.297,31.607 91.5,32.5C 89.9582,33.3007 88.2915,33.634 86.5,33.5C 89.0078,31.0764 92.0078,29.4097 95.5,28.5 Z"/></g>
<g><path style="opacity:0.953" fill="#68a6e4" d="M 240.5,39.5 C 242.54,41.177 244.54,42.8437 246.5,44.5C 243.13,44.3712 241.13,42.7046 240.5,39.5 Z"/></g>
<g><path style="opacity:0.541" fill="#5495da" d="M 84.5,34.5 C 83.7259,37.3253 82.0592,39.492 79.5,41C 74.1526,43.337 69.1526,46.1704 64.5,49.5C 70.5956,43.7376 77.2623,38.7376 84.5,34.5 Z"/></g>
<g><path style="opacity:0.792" fill="#5397d6" d="M 246.5,44.5 C 249.109,45.4431 251.109,47.1097 252.5,49.5C 250.5,48.8333 248.5,48.1667 246.5,47.5C 246.5,46.5 246.5,45.5 246.5,44.5 Z"/></g>
<g><path style="opacity:0.631" fill="#7eb9e6" d="M 164.5,47.5 C 165.167,47.5 165.833,47.5 166.5,47.5C 166.821,49.0481 167.821,49.7148 169.5,49.5C 165.595,49.595 161.595,49.595 157.5,49.5C 159.833,48.8333 162.167,48.1667 164.5,47.5 Z"/></g>
<g><path style="opacity:0.2" fill="#80b4e2" d="M 150.5,49.5 C 152.688,48.3773 155.021,48.3773 157.5,49.5C 155.338,50.4171 153.005,50.4171 150.5,49.5 Z"/></g>
<g><path style="opacity:0.239" fill="#9ecff3" d="M 169.5,49.5 C 170.097,48.8614 170.93,48.528 172,48.5C 173.939,48.9543 175.772,49.621 177.5,50.5C 177.265,51.0967 176.765,51.4301 176,51.5C 173.953,50.3906 171.787,49.7239 169.5,49.5 Z"/></g>
<g><path style="opacity:1" fill="#4f90df" d="M 164.5,47.5 C 162.167,48.1667 159.833,48.8333 157.5,49.5C 155.021,48.3773 152.688,48.3773 150.5,49.5C 146.817,51.2499 142.817,51.9166 138.5,51.5C 134.475,51.6301 130.809,52.6301 127.5,54.5C 123.048,56.5412 118.382,58.2079 113.5,59.5C 112.833,59.5 112.167,59.5 111.5,59.5C 116.604,56.9549 121.604,54.1216 126.5,51C 139.029,48.7753 151.696,47.6086 164.5,47.5 Z"/></g>
<g><path style="opacity:1" fill="#3f8adc" d="M 187.5,54.5 C 185.901,54.7678 184.568,54.4345 183.5,53.5C 185.896,52.0736 185.563,50.7403 182.5,49.5C 181.817,49.8627 181.15,50.1961 180.5,50.5C 179.5,50.5 178.5,50.5 177.5,50.5C 175.772,49.621 173.939,48.9543 172,48.5C 170.93,48.528 170.097,48.8614 169.5,49.5C 167.821,49.7148 166.821,49.0481 166.5,47.5C 172.823,46.8014 179.156,47.3014 185.5,49C 186.244,50.8148 186.911,52.6481 187.5,54.5 Z"/></g>
<g><path style="opacity:0.208" fill="#9fd4f5" d="M 138.5,51.5 C 135.191,53.3699 131.525,54.3699 127.5,54.5C 130.809,52.6301 134.475,51.6301 138.5,51.5 Z"/></g>
<g><path style="opacity:0.353" fill="#8cc0df" d="M 183.5,53.5 C 181.5,53.5 180.5,52.5 180.5,50.5C 181.15,50.1961 181.817,49.8627 182.5,49.5C 185.563,50.7403 185.896,52.0736 183.5,53.5 Z"/></g>
<g><path style="opacity:0.682" fill="#80b6e8" d="M 188.5,54.5 C 191.716,54.3455 194.383,55.3455 196.5,57.5C 193.603,56.871 190.936,55.871 188.5,54.5 Z"/></g>
<g><path style="opacity:0.663" fill="#5596d8" d="M 62.5,51.5 C 60.0165,54.9974 57.0165,57.6641 53.5,59.5C 55.8998,56.0969 58.8998,53.4302 62.5,51.5 Z"/></g>
<g><path style="opacity:0.725" fill="#6aa4e1" d="M 197.5,57.5 C 204.457,58.0401 210.457,60.7068 215.5,65.5C 209.462,62.8122 203.462,60.1455 197.5,57.5 Z"/></g>
<g><path style="opacity:0.961" fill="#468ddc" d="M 254.5,51.5 C 259.23,55.2269 263.23,59.5603 266.5,64.5C 263.375,62.5437 260.709,60.0437 258.5,57C 257.552,56.5172 256.552,56.3505 255.5,56.5C 255.371,54.7839 255.038,53.1172 254.5,51.5 Z"/></g>
<g><path style="opacity:0.671" fill="#71afe0" d="M 111.5,59.5 C 112.167,59.5 112.833,59.5 113.5,59.5C 111.344,61.841 108.844,63.841 106,65.5C 104.091,64.6681 102.258,65.0015 100.5,66.5C 100.5,65.8333 100.5,65.1667 100.5,64.5C 104.344,63.0405 108.01,61.3738 111.5,59.5 Z"/></g>
<g><path style="opacity:1" fill="#5599e2" d="M 215.5,65.5 C 221.035,64.9182 224.368,67.2516 225.5,72.5C 222.143,70.1342 218.81,67.8008 215.5,65.5 Z"/></g>
<g><path style="opacity:0.757" fill="#5c9cde" d="M 53.5,59.5 C 53.046,62.1398 51.8793,64.4732 50,66.5C 47.3367,68.3336 44.8367,70.3336 42.5,72.5C 45.4565,67.6012 49.1231,63.2678 53.5,59.5 Z"/></g>
<g><path style="opacity:1" fill="#2b83e8" d="M 100.5,64.5 C 100.5,65.1667 100.5,65.8333 100.5,66.5C 99.8333,66.5 99.5,66.8333 99.5,67.5C 98.2652,67.7214 97.2652,68.3881 96.5,69.5C 94.1332,68.178 92.4665,68.8447 91.5,71.5C 90.5,71.5 89.5,71.5 88.5,71.5C 88.5,72.5 88.5,73.5 88.5,74.5C 88.5,75.1667 88.1667,75.5 87.5,75.5C 87.1924,73.076 87.5258,70.7427 88.5,68.5C 89.1667,68.8333 89.8333,69.1667 90.5,69.5C 93.3573,66.7379 96.6906,65.0713 100.5,64.5 Z"/></g>
<g><path style="opacity:0.078" fill="#95c8ec" d="M 99.5,67.5 C 99.5858,68.4959 99.2524,69.3292 98.5,70C 96.1873,70.662 93.854,71.162 91.5,71.5C 92.4665,68.8447 94.1332,68.178 96.5,69.5C 97.2652,68.3881 98.2652,67.7214 99.5,67.5 Z"/></g>
<g><path style="opacity:0.639" fill="#78b2e1" d="M 91.5,71.5 C 90.8333,72.8333 89.8333,73.8333 88.5,74.5C 88.5,73.5 88.5,72.5 88.5,71.5C 89.5,71.5 90.5,71.5 91.5,71.5 Z"/></g>
<g><path style="opacity:0.588" fill="#73b4e2" d="M 42.5,72.5 C 42.573,74.0269 41.9063,75.0269 40.5,75.5C 40.427,73.9731 41.0937,72.9731 42.5,72.5 Z"/></g>
<g><path style="opacity:0.302" fill="#91ccf3" d="M 227.5,74.5 C 229.179,74.2852 230.179,74.9519 230.5,76.5C 229.29,76.0679 228.29,75.4013 227.5,74.5 Z"/></g>
<g><path style="opacity:0.353" fill="#76b2e8" d="M 40.5,75.5 C 40.573,77.0269 39.9063,78.0269 38.5,78.5C 38.427,76.9731 39.0937,75.9731 40.5,75.5 Z"/></g>
<g><path style="opacity:0.392" fill="#93c4ed" d="M 230.5,76.5 C 232.446,77.0347 233.446,78.368 233.5,80.5C 232.026,79.5637 231.026,78.2303 230.5,76.5 Z"/></g>
<g><path style="opacity:0.914" fill="#609fdf" d="M 233.5,80.5 C 236.179,80.5246 237.512,81.858 237.5,84.5C 235.833,83.5 234.5,82.1667 233.5,80.5 Z"/></g>
<g><path style="opacity:0.933" fill="#5697db" d="M 86.5,76.5 C 84.5841,81.1709 81.2508,84.3376 76.5,86C 74.2659,88.0627 72.2659,90.2294 70.5,92.5C 71.3714,88.6677 73.038,85.3344 75.5,82.5C 77.5,82.5 79.5,82.5 81.5,82.5C 81.8333,80.5 82.1667,78.5 82.5,76.5C 83.8333,76.5 85.1667,76.5 86.5,76.5 Z"/></g>
<g><path style="opacity:1" fill="#3d8ae1" d="M 266.5,64.5 C 270.515,68.3555 274.015,72.6888 277,77.5C 280.524,83.8876 284.024,90.221 287.5,96.5C 285.228,95.073 283.061,93.4063 281,91.5C 278.272,83.037 273.772,75.7036 267.5,69.5C 266.691,67.9291 266.357,66.2624 266.5,64.5 Z"/></g>
<g><path style="opacity:0.176" fill="#a0d6f6" d="M 31.5,90.5 C 31.573,92.0269 30.9063,93.0269 29.5,93.5C 29.427,91.9731 30.0937,90.9731 31.5,90.5 Z"/></g>
<g><path style="opacity:0.757" fill="#5596d9" d="M 237.5,84.5 C 239.17,84.7512 240.67,85.4178 242,86.5C 243.481,89.11 244.648,91.7766 245.5,94.5C 245.167,94.5 244.833,94.5 244.5,94.5C 242.167,91.1667 239.833,87.8333 237.5,84.5 Z"/></g>
<g><path style="opacity:1" fill="#418adf" d="M 38.5,78.5 C 35.8561,83.821 33.6894,89.4876 32,95.5C 30.483,97.2395 28.983,98.9062 27.5,100.5C 27.5,99.8333 27.5,99.1667 27.5,98.5C 27.7959,96.597 28.4625,94.9303 29.5,93.5C 30.9063,93.0269 31.573,92.0269 31.5,90.5C 32.8278,85.8349 35.1611,81.8349 38.5,78.5 Z"/></g>
<g><path style="opacity:0.792" fill="#64a3db" d="M 70.5,92.5 C 69.8897,94.4341 68.8897,96.1007 67.5,97.5C 66.9162,94.715 67.9162,93.0483 70.5,92.5 Z"/></g>
<g><path style="opacity:0.635" fill="#82bbea" d="M 67.5,97.5 C 67.3404,99.153 66.6737,100.486 65.5,101.5C 65.5,100.5 65.5,99.5 65.5,98.5C 65.8417,97.6618 66.5084,97.3284 67.5,97.5 Z"/></g>
<g><path style="opacity:0.341" fill="#92ccf1" d="M 244.5,94.5 C 244.833,94.5 245.167,94.5 245.5,94.5C 246.313,96.2608 247.313,97.9275 248.5,99.5C 251.699,104.279 253.366,109.612 253.5,115.5C 252.72,110.279 250.386,105.779 246.5,102C 246.833,101.667 247.167,101.333 247.5,101C 246.086,99.0065 245.086,96.8398 244.5,94.5 Z"/></g>
<g><path style="opacity:0.784" fill="#72ade1" d="M 27.5,98.5 C 27.5,99.1667 27.5,99.8333 27.5,100.5C 27.2503,102.674 26.2503,104.341 24.5,105.5C 24.9348,102.843 25.9348,100.509 27.5,98.5 Z"/></g>
<g><path style="opacity:1" fill="#3d87e2" d="M 248.5,99.5 C 253.047,102.951 255.213,107.617 255,113.5C 259.089,118.92 260.589,124.92 259.5,131.5C 258.833,129.833 258.167,128.167 257.5,126.5C 255.721,123.085 254.387,119.419 253.5,115.5C 253.366,109.612 251.699,104.279 248.5,99.5 Z"/></g>
<g><path style="opacity:0.922" fill="#69a2e1" d="M 65.5,98.5 C 65.5,99.5 65.5,100.5 65.5,101.5C 64.3411,105.151 62.6744,108.485 60.5,111.5C 60.1667,111.5 59.8333,111.5 59.5,111.5C 59.687,109.436 60.187,107.436 61,105.5C 62.0486,102.813 63.5486,100.48 65.5,98.5 Z"/></g>
<g><path style="opacity:0.78" fill="#5a9dd7" d="M 289.5,101.5 C 291.065,103.509 292.065,105.843 292.5,108.5C 290.166,106.824 289.166,104.491 289.5,101.5 Z"/></g>
<g><path style="opacity:0.741" fill="#599bd9" d="M 24.5,106.5 C 24.2453,110.8 23.2453,114.8 21.5,118.5C 21.3082,114.098 22.3082,110.098 24.5,106.5 Z"/></g>
<g><path style="opacity:0.482" fill="#7db5e4" d="M 59.5,111.5 C 59.8333,111.5 60.1667,111.5 60.5,111.5C 60.0198,114.443 59.0198,117.11 57.5,119.5C 57.5,118.167 57.5,116.833 57.5,115.5C 58.1667,114.167 58.8333,112.833 59.5,111.5 Z"/></g>
<g><path style="opacity:1" fill="#3284e0" d="M 287.5,96.5 C 288.931,97.7804 289.598,99.4471 289.5,101.5C 289.166,104.491 290.166,106.824 292.5,108.5C 293.774,110.993 294.44,113.659 294.5,116.5C 294.5,117.833 294.5,119.167 294.5,120.5C 293.434,116.681 291.767,113.014 289.5,109.5C 288.541,105.204 287.875,100.871 287.5,96.5 Z"/></g>
<g><path style="opacity:0.949" fill="#4991d9" d="M 294.5,116.5 C 297.072,122.808 298.405,129.475 298.5,136.5C 298.167,136.5 297.833,136.5 297.5,136.5C 296.678,131.054 295.678,125.721 294.5,120.5C 294.5,119.167 294.5,117.833 294.5,116.5 Z"/></g>
<g><path style="opacity:1" fill="#4489e1" d="M 57.5,115.5 C 57.5,116.833 57.5,118.167 57.5,119.5C 56.2909,125.548 54.9576,131.548 53.5,137.5C 52.9176,140.34 51.4176,142.673 49,144.5C 48.5003,151.826 48.3337,159.159 48.5,166.5C 47.507,158.016 47.1736,149.349 47.5,140.5C 48.8221,140.67 49.9887,140.337 51,139.5C 51.6215,131.008 53.7881,123.008 57.5,115.5 Z"/></g>
<g><path style="opacity:0.4" fill="#7cb8e2" d="M 257.5,126.5 C 258.167,128.167 258.833,129.833 259.5,131.5C 259.5,132.5 259.5,133.5 259.5,134.5C 258.883,134.389 258.383,134.056 258,133.5C 257.503,131.19 257.337,128.857 257.5,126.5 Z"/></g>
<g><path style="opacity:1" fill="#137eeb" d="M 259.5,131.5 C 261.13,133.026 261.963,135.026 262,137.5C 263.044,136.377 263.71,135.044 264,133.5C 264.87,134.108 265.37,134.941 265.5,136C 264.922,137.811 264.422,139.645 264,141.5C 263.667,151.167 263.333,160.833 263,170.5C 262.851,175.101 262.018,179.434 260.5,183.5C 260.833,178.167 261.167,172.833 261.5,167.5C 262.833,158.167 262.833,148.833 261.5,139.5C 261.158,138.662 260.492,138.328 259.5,138.5C 259.5,137.167 259.5,135.833 259.5,134.5C 259.5,133.5 259.5,132.5 259.5,131.5 Z"/></g>
<g><path style="opacity:0.824" fill="#609bd7" d="M 105.5,141.5 C 107.415,141.784 109.081,141.451 110.5,140.5C 110.5,139.5 110.5,138.5 110.5,137.5C 107.449,136.397 104.282,135.731 101,135.5C 98.498,135.338 96.3313,136.005 94.5,137.5C 92.9826,137.511 91.8159,138.177 91,139.5C 90.1504,144.021 90.6504,148.355 92.5,152.5C 86.9006,146.553 87.2339,140.72 93.5,135C 99.7581,132.659 105.758,133.159 111.5,136.5C 114.104,139.99 113.104,142.324 108.5,143.5C 107.261,143.058 106.261,142.391 105.5,141.5 Z"/></g>
<g><path style="opacity:0.776" fill="#6fa8d8" d="M 200.5,139.5 C 199.751,138.469 199.085,137.302 198.5,136C 195.833,135.333 193.167,135.333 190.5,136C 189.352,139.053 188.019,141.886 186.5,144.5C 186.792,140.793 187.792,137.293 189.5,134C 192.5,133.333 195.5,133.333 198.5,134C 200.155,135.444 200.822,137.278 200.5,139.5 Z"/></g>
<g><path style="opacity:0.775" fill="#4c89c6" d="M 213.5,135.5 C 218.305,134.513 223.305,134.179 228.5,134.5C 229.147,135.274 229.48,136.274 229.5,137.5C 229.36,139.03 228.693,140.03 227.5,140.5C 227.167,140.5 226.833,140.5 226.5,140.5C 226.5,140.167 226.5,139.833 226.5,139.5C 227.434,138.432 227.768,137.099 227.5,135.5C 222.833,135.5 218.167,135.5 213.5,135.5 Z"/></g>
<g><path style="opacity:0.994" fill="#3983da" d="M 21.5,119.5 C 21.3028,126.026 20.6361,132.359 19.5,138.5C 19.5,135.833 19.5,133.167 19.5,130.5C 19.4299,126.575 20.0966,122.909 21.5,119.5 Z"/></g>
<g><path style="opacity:0.776" fill="#7bacd6" d="M 173.5,139.5 C 173.5,138.167 173.5,136.833 173.5,135.5C 171.05,135.298 168.717,135.631 166.5,136.5C 166.577,135.25 167.244,134.417 168.5,134C 170.833,133.333 173.167,133.333 175.5,134C 176.225,136.18 175.559,138.014 173.5,139.5 Z"/></g>
<g><path style="opacity:1" fill="#057ef8" d="M 110.5,140.5 C 106.642,139.175 102.642,138.675 98.5,139C 95.4494,141.075 93.4494,143.909 92.5,147.5C 90.8589,143.63 91.5255,140.297 94.5,137.5C 96.3313,136.005 98.498,135.338 101,135.5C 104.282,135.731 107.449,136.397 110.5,137.5C 110.5,138.5 110.5,139.5 110.5,140.5 Z"/></g>
<g><path style="opacity:0.841" fill="#5898db" d="M 155.5,134.5 C 155.5,140.167 155.5,145.833 155.5,151.5C 154.512,146.36 154.179,141.026 154.5,135.5C 152.833,135.5 151.167,135.5 149.5,135.5C 149.5,146.833 149.5,158.167 149.5,169.5C 151.167,169.5 152.833,169.5 154.5,169.5C 154.345,164.359 155.012,159.359 156.5,154.5C 158.415,154.216 160.081,154.549 161.5,155.5C 160.167,155.5 158.833,155.5 157.5,155.5C 157.5,156.833 157.5,158.167 157.5,159.5C 156.57,163.4 156.237,167.4 156.5,171.5C 153.5,171.5 150.5,171.5 147.5,171.5C 147.333,159.162 147.5,146.829 148,134.5C 150.605,133.186 153.105,133.186 155.5,134.5 Z"/></g>
<g><path style="opacity:0.322" fill="#97cff9" d="M 166.5,136.5 C 166.573,138.027 165.906,139.027 164.5,139.5C 164.427,137.973 165.094,136.973 166.5,136.5 Z"/></g>
<g><path style="opacity:0.514" fill="#a2cde6" d="M 228.5,134.5 C 223.305,134.179 218.305,134.513 213.5,135.5C 213.5,137.167 213.5,138.833 213.5,140.5C 212.711,140.217 212.044,139.717 211.5,139C 211.501,137.601 211.835,136.101 212.5,134.5C 217.986,133.185 223.32,133.185 228.5,134.5 Z"/></g>
<g><path style="opacity:0.82" fill="#76aee2" d="M 173.5,139.5 C 172.974,141.23 171.974,142.564 170.5,143.5C 170.5,142.167 170.5,140.833 170.5,139.5C 171.5,139.5 172.5,139.5 173.5,139.5 Z"/></g>
<g><path style="opacity:0.294" fill="#96d6fd" d="M 259.5,138.5 C 260.492,138.328 261.158,138.662 261.5,139.5C 261.672,140.492 261.338,141.158 260.5,141.5C 260.443,140.391 260.11,139.391 259.5,138.5 Z"/></g>
<g><path style="opacity:0.278" fill="#9ed4fa" d="M 164.5,139.5 C 164.573,141.027 163.906,142.027 162.5,142.5C 162.427,140.973 163.094,139.973 164.5,139.5 Z"/></g>
<g><path style="opacity:1" fill="#2882e5" d="M 173.5,139.5 C 172.5,139.5 171.5,139.5 170.5,139.5C 170.5,140.833 170.5,142.167 170.5,143.5C 169.194,145.816 167.861,148.15 166.5,150.5C 167.127,151.417 167.461,152.417 167.5,153.5C 166.5,153.5 165.5,153.5 164.5,153.5C 164.16,150.856 164.827,148.523 166.5,146.5C 166.081,145.328 165.415,144.328 164.5,143.5C 163.548,145.045 163.215,146.712 163.5,148.5C 162.448,148.351 161.448,148.517 160.5,149C 159.743,150.512 158.743,151.846 157.5,153C 156.563,153.692 155.897,153.525 155.5,152.5C 157.262,151.738 158.262,150.404 158.5,148.5C 159.906,148.027 160.573,147.027 160.5,145.5C 161.906,145.027 162.573,144.027 162.5,142.5C 163.906,142.027 164.573,141.027 164.5,139.5C 165.906,139.027 166.573,138.027 166.5,136.5C 168.717,135.631 171.05,135.298 173.5,135.5C 173.5,136.833 173.5,138.167 173.5,139.5 Z"/></g>
<g><path style="opacity:1" fill="#2681e9" d="M 200.5,139.5 C 202.591,144.191 203.924,149.191 204.5,154.5C 202.662,151.959 200.828,149.292 199,146.5C 198.506,148.134 198.34,149.801 198.5,151.5C 197.5,148.833 196.5,146.167 195.5,143.5C 194.012,140.814 193.345,141.147 193.5,144.5C 193.198,147.373 192.531,150.039 191.5,152.5C 190.566,153.568 190.232,154.901 190.5,156.5C 192.833,156.5 195.167,156.5 197.5,156.5C 195.22,158.223 192.553,158.889 189.5,158.5C 190.084,153.501 190.251,148.501 190,143.5C 189.098,145.431 187.931,147.097 186.5,148.5C 186.5,147.167 186.5,145.833 186.5,144.5C 188.019,141.886 189.352,139.053 190.5,136C 193.167,135.333 195.833,135.333 198.5,136C 199.085,137.302 199.751,138.469 200.5,139.5 Z"/></g>
<g><path style="opacity:0.404" fill="#8ed2f5" d="M 195.5,143.5 C 195.5,144.833 195.5,146.167 195.5,147.5C 194.833,146.5 194.167,145.5 193.5,144.5C 193.345,141.147 194.012,140.814 195.5,143.5 Z"/></g>
<g><path style="opacity:0.169" fill="#aae1fe" d="M 213.5,140.5 C 214.833,140.5 216.167,140.5 217.5,140.5C 217.5,148.833 217.5,157.167 217.5,165.5C 216.167,165.5 214.833,165.5 213.5,165.5C 214.209,164.596 215.209,164.263 216.5,164.5C 216.5,156.833 216.5,149.167 216.5,141.5C 215.209,141.737 214.209,141.404 213.5,140.5 Z"/></g>
<g><path style="opacity:0.443" fill="#63a4e2" d="M 19.5,130.5 C 19.5,133.167 19.5,135.833 19.5,138.5C 19.5,138.833 19.5,139.167 19.5,139.5C 18.8333,142.167 18.1667,144.833 17.5,147.5C 17.3213,141.596 17.9879,135.929 19.5,130.5 Z"/></g>
<g><path style="opacity:0.29" fill="#9dcdf6" d="M 162.5,142.5 C 162.573,144.027 161.906,145.027 160.5,145.5C 160.427,143.973 161.094,142.973 162.5,142.5 Z"/></g>
<g><path style="opacity:0.136" fill="#abe3ff" d="M 226.5,140.5 C 226.833,140.5 227.167,140.5 227.5,140.5C 226.235,144.412 225.569,148.579 225.5,153C 225.569,157.421 226.235,161.588 227.5,165.5C 227.167,165.5 226.833,165.5 226.5,165.5C 225.175,161.724 224.509,157.557 224.5,153C 224.509,148.443 225.175,144.276 226.5,140.5 Z"/></g>
<g><path style="opacity:0.655" fill="#85bbea" d="M 186.5,144.5 C 186.5,145.833 186.5,147.167 186.5,148.5C 185.833,149.5 185.167,150.5 184.5,151.5C 184.41,148.848 185.076,146.515 186.5,144.5 Z"/></g>
<g><path style="opacity:0.753" fill="#67a8df" d="M 97.5,146.5 C 99.7323,147.869 102.066,148.869 104.5,149.5C 102.167,149.5 99.8333,149.5 97.5,149.5C 97.5,148.5 97.5,147.5 97.5,146.5 Z"/></g>
<g><path style="opacity:0.307" fill="#76caf6" d="M 30.5,170.5 C 29.7784,170.082 29.2784,169.416 29,168.5C 28.6667,170.5 28.3333,172.5 28,174.5C 27.6174,175.056 27.1174,175.389 26.5,175.5C 25.7347,172.904 25.4013,170.237 25.5,167.5C 25.5,167.167 25.5,166.833 25.5,166.5C 26.29,167.609 26.79,168.942 27,170.5C 28.4945,129.192 29.6612,129.192 30.5,170.5 Z"/></g>
<g><path style="opacity:0.757" fill="#4787c9" d="M 127.5,149.5 C 130.5,149.5 133.5,149.5 136.5,149.5C 137.833,149.5 139.167,149.5 140.5,149.5C 140.795,151.735 140.461,153.735 139.5,155.5C 139.714,153.856 139.38,152.356 138.5,151C 134.644,150.823 130.977,150.323 127.5,149.5 Z"/></g>
<g><path style="opacity:0.016" fill="#d1ecf4" d="M 56.5,152.5 C 56.6567,151.127 56.49,149.793 56,148.5C 55.2838,150.879 54.1172,152.879 52.5,154.5C 52.7896,151.112 54.2896,148.445 57,146.5C 57.7891,148.712 57.6225,150.712 56.5,152.5 Z"/></g>
<g><path style="opacity:1" fill="#057ffa" d="M 127.5,140.5 C 127.5,141.167 127.167,141.5 126.5,141.5C 124.706,143.103 123.706,145.27 123.5,148C 125.209,150.043 127.209,151.877 129.5,153.5C 126.933,154.099 125.266,155.599 124.5,158C 125.161,160.464 125.661,162.964 126,165.5C 127.699,166.406 129.533,166.739 131.5,166.5C 131.5,167.5 131.5,168.5 131.5,169.5C 128.167,169.167 124.833,168.833 121.5,168.5C 121.5,157.833 121.5,147.167 121.5,136.5C 127.833,136.5 134.167,136.5 140.5,136.5C 140.5,137.5 140.5,138.5 140.5,139.5C 135.968,139.182 131.634,139.515 127.5,140.5 Z"/></g>
<g><path style="opacity:1" fill="#137ce5" d="M 127.5,140.5 C 131.634,139.515 135.968,139.182 140.5,139.5C 140.5,138.5 140.5,137.5 140.5,136.5C 134.167,136.5 127.833,136.5 121.5,136.5C 121.5,147.167 121.5,157.833 121.5,168.5C 124.833,168.833 128.167,169.167 131.5,169.5C 131.5,168.5 131.5,167.5 131.5,166.5C 129.533,166.739 127.699,166.406 126,165.5C 125.661,162.964 125.161,160.464 124.5,158C 125.266,155.599 126.933,154.099 129.5,153.5C 127.209,151.877 125.209,150.043 123.5,148C 123.706,145.27 124.706,143.103 126.5,141.5C 126.194,144.385 126.527,147.052 127.5,149.5C 130.977,150.323 134.644,150.823 138.5,151C 139.38,152.356 139.714,153.856 139.5,155.5C 135.486,155.334 131.486,155.501 127.5,156C 126.39,158.737 126.223,161.571 127,164.5C 131.737,165.469 136.57,165.803 141.5,165.5C 141.5,167.167 141.5,168.833 141.5,170.5C 134.578,170.812 127.744,170.479 121,169.5C 120.5,158.172 120.333,146.838 120.5,135.5C 127.5,135.5 134.5,135.5 141.5,135.5C 141.5,137.167 141.5,138.833 141.5,140.5C 136.833,140.5 132.167,140.5 127.5,140.5 Z"/></g>
<g><path style="opacity:0.247" fill="#8ed5f8" d="M 155.5,134.5 C 156.326,139.316 156.826,144.316 157,149.5C 157.383,148.944 157.883,148.611 158.5,148.5C 158.262,150.404 157.262,151.738 155.5,152.5C 155.5,152.167 155.5,151.833 155.5,151.5C 155.5,145.833 155.5,140.167 155.5,134.5 Z"/></g>
<g><path style="opacity:1" fill="#3385ea" d="M 94.5,137.5 C 91.5255,140.297 90.8589,143.63 92.5,147.5C 93.4494,143.909 95.4494,141.075 98.5,139C 102.642,138.675 106.642,139.175 110.5,140.5C 109.081,141.451 107.415,141.784 105.5,141.5C 103.143,141.337 100.81,141.503 98.5,142C 97.6198,143.356 97.2865,144.856 97.5,146.5C 97.5,147.5 97.5,148.5 97.5,149.5C 99.8333,149.5 102.167,149.5 104.5,149.5C 104.833,149.5 105.167,149.5 105.5,149.5C 105.557,150.609 105.89,151.609 106.5,152.5C 102.667,153.563 102.667,154.396 106.5,155C 105.402,155.77 105.402,156.603 106.5,157.5C 105.833,157.5 105.167,157.5 104.5,157.5C 99.9124,156.978 95.9124,155.312 92.5,152.5C 90.6504,148.355 90.1504,144.021 91,139.5C 91.8159,138.177 92.9826,137.511 94.5,137.5 Z"/></g>
<g><path style="opacity:1" fill="#077ef7" d="M 155.5,151.5 C 155.5,151.833 155.5,152.167 155.5,152.5C 155.897,153.525 156.563,153.692 157.5,153C 158.743,151.846 159.743,150.512 160.5,149C 161.448,148.517 162.448,148.351 163.5,148.5C 163.215,146.712 163.548,145.045 164.5,143.5C 165.415,144.328 166.081,145.328 166.5,146.5C 164.827,148.523 164.16,150.856 164.5,153.5C 165.5,153.5 166.5,153.5 167.5,153.5C 168.42,158.889 170.087,163.889 172.5,168.5C 171.448,168.649 170.448,168.483 169.5,168C 167.975,166.207 166.642,164.374 165.5,162.5C 164.312,160.012 162.979,157.678 161.5,155.5C 160.081,154.549 158.415,154.216 156.5,154.5C 155.012,159.359 154.345,164.359 154.5,169.5C 152.833,169.5 151.167,169.5 149.5,169.5C 149.5,158.167 149.5,146.833 149.5,135.5C 151.167,135.5 152.833,135.5 154.5,135.5C 154.179,141.026 154.512,146.36 155.5,151.5 Z"/></g>
<g><path style="opacity:0.286" fill="#9ccff6" d="M 160.5,145.5 C 160.573,147.027 159.906,148.027 158.5,148.5C 158.427,146.973 159.094,145.973 160.5,145.5 Z"/></g>
<g><path style="opacity:1" fill="#0b7ef4" d="M 197.5,156.5 C 198.451,155.081 198.784,153.415 198.5,151.5C 198.34,149.801 198.506,148.134 199,146.5C 200.828,149.292 202.662,151.959 204.5,154.5C 205.918,159.754 206.918,165.087 207.5,170.5C 202.984,170.519 200.984,168.186 201.5,163.5C 199.603,162.195 197.269,161.529 194.5,161.5C 188.193,159.788 185.359,162.122 186,168.5C 184.644,169.38 183.144,169.714 181.5,169.5C 181.5,168.167 181.5,166.833 181.5,165.5C 181.5,164.167 181.5,162.833 181.5,161.5C 181.5,161.167 181.5,160.833 181.5,160.5C 183.472,157.916 184.472,154.916 184.5,151.5C 185.167,150.5 185.833,149.5 186.5,148.5C 187.931,147.097 189.098,145.431 190,143.5C 190.251,148.501 190.084,153.501 189.5,158.5C 192.553,158.889 195.22,158.223 197.5,156.5 Z"/></g>
<g><path style="opacity:0.431" fill="#8cc8f3" d="M 53.5,137.5 C 53.3841,140.86 53.0508,144.193 52.5,147.5C 51.5,147.5 50.5,147.5 49.5,147.5C 49.1778,153.358 49.5111,159.025 50.5,164.5C 50.5,165.833 50.5,167.167 50.5,168.5C 49.8333,167.833 49.1667,167.167 48.5,166.5C 48.3337,159.159 48.5003,151.826 49,144.5C 51.4176,142.673 52.9176,140.34 53.5,137.5 Z"/></g>
<g><path style="opacity:0.749" fill="#74a9d8" d="M 136.5,149.5 C 133.5,149.5 130.5,149.5 127.5,149.5C 126.527,147.052 126.194,144.385 126.5,141.5C 127.167,141.5 127.5,141.167 127.5,140.5C 132.167,140.5 136.833,140.5 141.5,140.5C 141.5,138.833 141.5,137.167 141.5,135.5C 134.5,135.5 127.5,135.5 120.5,135.5C 120.333,146.838 120.5,158.172 121,169.5C 127.744,170.479 134.578,170.812 141.5,170.5C 141.5,170.833 141.5,171.167 141.5,171.5C 134.794,172.483 127.794,172.65 120.5,172C 120,171.5 119.5,171 119,170.5C 118.959,159.671 118.793,148.505 118.5,137C 118.759,135.739 119.426,134.739 120.5,134C 127.5,133.333 134.5,133.333 141.5,134C 142.435,136.381 142.768,138.881 142.5,141.5C 137.821,141.334 133.155,141.501 128.5,142C 127.577,144.041 127.244,146.208 127.5,148.5C 130.713,148.19 133.713,148.523 136.5,149.5 Z"/></g>
<g><path style="opacity:0.784" fill="#6697c1" d="M 56.5,152.5 C 56.5987,155.237 56.2653,157.904 55.5,160.5C 54.6618,160.842 54.3284,161.508 54.5,162.5C 53.8333,162.833 53.1667,163.167 52.5,163.5C 52.5,160.5 52.5,157.5 52.5,154.5C 54.1172,152.879 55.2838,150.879 56,148.5C 56.49,149.793 56.6567,151.127 56.5,152.5 Z"/></g>
<g><path style="opacity:0.635" fill="#94c9ee" d="M 184.5,151.5 C 184.472,154.916 183.472,157.916 181.5,160.5C 181.928,157.215 182.928,154.215 184.5,151.5 Z"/></g>
<g><path style="opacity:0.761" fill="#3d89d8" d="M 195.5,143.5 C 196.5,146.167 197.5,148.833 198.5,151.5C 198.784,153.415 198.451,155.081 197.5,156.5C 197.737,155.209 197.404,154.209 196.5,153.5C 195.85,151.565 195.517,149.565 195.5,147.5C 195.5,146.167 195.5,144.833 195.5,143.5 Z"/></g>
<g><path style="opacity:0.118" fill="#a2e3fe" d="M 191.5,152.5 C 191.5,153.5 191.5,154.5 191.5,155.5C 193.781,155.923 195.448,155.256 196.5,153.5C 197.404,154.209 197.737,155.209 197.5,156.5C 195.167,156.5 192.833,156.5 190.5,156.5C 190.232,154.901 190.566,153.568 191.5,152.5 Z"/></g>
<g><path style="opacity:0.802" fill="#2e7fcb" d="M 261.5,139.5 C 262.833,148.833 262.833,158.167 261.5,167.5C 261.826,159.316 261.492,151.316 260.5,143.5C 260.5,142.833 260.5,142.167 260.5,141.5C 261.338,141.158 261.672,140.492 261.5,139.5 Z"/></g>
<g><path style="opacity:0.918" fill="#60a1de" d="M 161.5,155.5 C 162.979,157.678 164.312,160.012 165.5,162.5C 165.5,163.5 165.5,164.5 165.5,165.5C 163.705,162.596 161.872,159.596 160,156.5C 159.148,157.571 158.315,158.571 157.5,159.5C 157.5,158.167 157.5,156.833 157.5,155.5C 158.833,155.5 160.167,155.5 161.5,155.5 Z"/></g>
<g><path style="opacity:0.847" fill="#2a7fe1" d="M 297.5,136.5 C 297.833,136.5 298.167,136.5 298.5,136.5C 298.5,136.833 298.5,137.167 298.5,137.5C 298.603,150.515 298.27,163.515 297.5,176.5C 297.5,176.833 297.5,177.167 297.5,177.5C 295.882,180.171 295.215,183.171 295.5,186.5C 294.227,193.954 291.894,200.954 288.5,207.5C 287.833,207.5 287.167,207.5 286.5,207.5C 286.343,206.127 286.51,204.793 287,203.5C 291.566,198.402 293.066,192.568 291.5,186C 292.025,185.308 292.692,184.808 293.5,184.5C 296.822,168.687 298.155,152.687 297.5,136.5 Z"/></g>
<g><path style="opacity:0.635" fill="#70a5d4" d="M 95.5,163.5 C 93.8333,163.5 92.1667,163.5 90.5,163.5C 92.1667,160.833 93.8333,160.833 95.5,163.5 Z"/></g>
<g><path style="opacity:0.094" fill="#d0fefe" d="M 52.5,154.5 C 52.5,157.5 52.5,160.5 52.5,163.5C 52.1583,164.338 51.4916,164.672 50.5,164.5C 51.0965,161.059 51.7632,157.725 52.5,154.5 Z"/></g>
<g><path style="opacity:0.745" fill="#6cabe4" d="M 104.5,157.5 C 105.167,157.5 105.833,157.5 106.5,157.5C 108.007,165.233 105.007,167.567 97.5,164.5C 104.4,166.257 106.733,163.924 104.5,157.5 Z"/></g>
<g><path style="opacity:0.576" fill="#72b0e3" d="M 139.5,155.5 C 136.023,156.323 132.356,156.823 128.5,157C 127.409,159.064 127.242,161.231 128,163.5C 132.675,163.713 137.508,164.046 142.5,164.5C 142.802,167.059 142.468,169.393 141.5,171.5C 141.5,171.167 141.5,170.833 141.5,170.5C 141.5,168.833 141.5,167.167 141.5,165.5C 136.57,165.803 131.737,165.469 127,164.5C 126.223,161.571 126.39,158.737 127.5,156C 131.486,155.501 135.486,155.334 139.5,155.5 Z"/></g>
<g><path style="opacity:0.835" fill="#2a7cca" d="M 54.5,162.5 C 54.5,165.5 54.5,168.5 54.5,171.5C 53.8386,170.282 53.1719,168.949 52.5,167.5C 51.8165,167.863 51.1499,168.196 50.5,168.5C 50.5,167.167 50.5,165.833 50.5,164.5C 51.4916,164.672 52.1583,164.338 52.5,163.5C 53.1667,163.167 53.8333,162.833 54.5,162.5 Z"/></g>
<g><path style="opacity:0.788" fill="#5894ce" d="M 90.5,163.5 C 90.5172,165.565 90.8505,167.565 91.5,169.5C 87.1875,167.666 86.8541,165.666 90.5,163.5 Z"/></g>
<g><path style="opacity:0.992" fill="#3a86df" d="M 167.5,153.5 C 170.335,157.164 172.668,161.164 174.5,165.5C 174.5,167.167 174.5,168.833 174.5,170.5C 172.167,170.5 169.833,170.5 167.5,170.5C 166.559,168.95 165.893,167.284 165.5,165.5C 165.5,164.5 165.5,163.5 165.5,162.5C 166.642,164.374 167.975,166.207 169.5,168C 170.448,168.483 171.448,168.649 172.5,168.5C 170.087,163.889 168.42,158.889 167.5,153.5 Z"/></g>
<g><path style="opacity:1" fill="#157ef2" d="M 106.5,152.5 C 108.437,153.59 110.27,154.924 112,156.5C 112.659,160.715 112.159,164.715 110.5,168.5C 104.321,170.797 97.9881,171.131 91.5,169.5C 90.8505,167.565 90.5172,165.565 90.5,163.5C 92.1667,163.5 93.8333,163.5 95.5,163.5C 96.4916,163.328 97.1583,163.662 97.5,164.5C 105.007,167.567 108.007,165.233 106.5,157.5C 105.402,156.603 105.402,155.77 106.5,155C 102.667,154.396 102.667,153.563 106.5,152.5 Z"/></g>
<g><path style="opacity:0.824" fill="#609cdc" d="M 105.5,149.5 C 114.786,153.115 116.953,159.448 112,168.5C 105.287,173.283 98.4541,173.616 91.5,169.5C 97.9881,171.131 104.321,170.797 110.5,168.5C 112.159,164.715 112.659,160.715 112,156.5C 110.27,154.924 108.437,153.59 106.5,152.5C 105.89,151.609 105.557,150.609 105.5,149.5 Z"/></g>
<g><path style="opacity:1" fill="#157ae3" d="M 213.5,135.5 C 218.167,135.5 222.833,135.5 227.5,135.5C 227.768,137.099 227.434,138.432 226.5,139.5C 226.5,139.833 226.5,140.167 226.5,140.5C 225.175,144.276 224.509,148.443 224.5,153C 224.509,157.557 225.175,161.724 226.5,165.5C 227.301,167.042 227.634,168.708 227.5,170.5C 223.131,170.533 218.798,170.2 214.5,169.5C 214.5,168.5 214.5,167.5 214.5,166.5C 215.791,166.737 216.791,166.404 217.5,165.5C 217.5,157.167 217.5,148.833 217.5,140.5C 216.167,140.5 214.833,140.5 213.5,140.5C 213.5,138.833 213.5,137.167 213.5,135.5 Z"/></g>
<g><path style="opacity:1" fill="#037dfa" d="M 226.5,139.5 C 225.167,139.5 223.833,139.5 222.5,139.5C 222.5,148.167 222.5,156.833 222.5,165.5C 221.5,165.5 220.5,165.5 219.5,165.5C 220.038,156.901 219.705,148.234 218.5,139.5C 217.069,139.023 215.736,138.357 214.5,137.5C 218.445,136.509 222.445,136.176 226.5,136.5C 226.5,137.5 226.5,138.5 226.5,139.5 Z"/></g>
<g><path style="opacity:1" fill="#317fcd" d="M 201.5,163.5 C 197.066,162.206 192.733,162.206 188.5,163.5C 188.397,166.636 187.397,169.302 185.5,171.5C 180.748,171.659 179.414,169.659 181.5,165.5C 181.5,166.833 181.5,168.167 181.5,169.5C 183.144,169.714 184.644,169.38 186,168.5C 185.359,162.122 188.193,159.788 194.5,161.5C 197.269,161.529 199.603,162.195 201.5,163.5 Z"/></g>
<g><path style="opacity:0.553" fill="#5f96c9" d="M 174.5,165.5 C 178.901,170.601 177.734,172.934 171,172.5C 169.698,171.915 168.531,171.249 167.5,170.5C 169.833,170.5 172.167,170.5 174.5,170.5C 174.5,168.833 174.5,167.167 174.5,165.5 Z"/></g>
<g><path style="opacity:0.537" fill="#88b8da" d="M 181.5,161.5 C 181.5,162.833 181.5,164.167 181.5,165.5C 179.414,169.659 180.748,171.659 185.5,171.5C 183.062,172.886 180.729,172.553 178.5,170.5C 179.133,167.268 180.133,164.268 181.5,161.5 Z"/></g>
<g><path style="opacity:0.718" fill="#7aaedb" d="M 204.5,154.5 C 207.311,159.774 208.811,165.441 209,171.5C 202.774,173.497 199.608,170.831 199.5,163.5C 195.833,163.5 192.167,163.5 188.5,163.5C 192.733,162.206 197.066,162.206 201.5,163.5C 200.984,168.186 202.984,170.519 207.5,170.5C 206.918,165.087 205.918,159.754 204.5,154.5 Z"/></g>
<g><path style="opacity:0.722" fill="#6699d2" d="M 213.5,165.5 C 214.833,165.5 216.167,165.5 217.5,165.5C 216.791,166.404 215.791,166.737 214.5,166.5C 214.5,167.5 214.5,168.5 214.5,169.5C 218.798,170.2 223.131,170.533 227.5,170.5C 227.634,168.708 227.301,167.042 226.5,165.5C 226.833,165.5 227.167,165.5 227.5,165.5C 228.693,165.97 229.36,166.97 229.5,168.5C 229.333,169.5 229.167,170.5 229,171.5C 223.918,172.637 218.751,172.804 213.5,172C 212.189,169.726 212.189,167.56 213.5,165.5 Z"/></g>
<g><path style="opacity:0.404" fill="#5a9ad9" d="M 298.5,137.5 C 299.166,142.489 299.499,147.656 299.5,153C 299.662,161.056 298.995,168.889 297.5,176.5C 298.27,163.515 298.603,150.515 298.5,137.5 Z"/></g>
<g><path style="opacity:1" fill="#1d80e7" d="M 39.5,187.5 C 38.1667,186.5 36.8333,185.5 35.5,184.5C 34.892,181.594 33.5587,179.26 31.5,177.5C 30.7814,175.236 30.448,172.903 30.5,170.5C 29.6612,129.192 28.4945,129.192 27,170.5C 26.79,168.942 26.29,167.609 25.5,166.5C 25.3177,157.13 25.8177,147.796 27,138.5C 27.7096,137.027 28.8762,136.36 30.5,136.5C 30.9282,148.189 31.7615,159.856 33,171.5C 34.3116,173.955 35.4782,176.455 36.5,179C 36.1667,179.333 35.8333,179.667 35.5,180C 38.3589,181.691 39.6923,184.191 39.5,187.5 Z"/></g>
<g><path style="opacity:0.329" fill="#89c3ee" d="M 55.5,160.5 C 56.8881,166.711 57.5547,173.045 57.5,179.5C 56.8333,177.167 56.1667,174.833 55.5,172.5C 54.8333,172.5 54.5,172.167 54.5,171.5C 54.5,168.5 54.5,165.5 54.5,162.5C 54.3284,161.508 54.6618,160.842 55.5,160.5 Z"/></g>
<g><path style="opacity:0.224" fill="#6fb0e6" d="M 297.5,177.5 C 297.324,180.727 296.657,183.727 295.5,186.5C 295.215,183.171 295.882,180.171 297.5,177.5 Z"/></g>
<g><path style="opacity:1" fill="#2c81e5" d="M 19.5,139.5 C 19.1918,151.539 19.6918,163.539 21,175.5C 22.3848,176.551 23.3848,177.884 24,179.5C 24.1762,175.312 24.6762,171.312 25.5,167.5C 25.4013,170.237 25.7347,172.904 26.5,175.5C 26.5,175.833 26.5,176.167 26.5,176.5C 26.3359,179.187 26.5026,181.854 27,184.5C 27.3826,185.056 27.8826,185.389 28.5,185.5C 28.5,185.833 28.5,186.167 28.5,186.5C 28.6641,189.187 28.4974,191.854 28,194.5C 25.7289,190.102 24.0622,185.436 23,180.5C 22.3292,179.748 21.4959,179.414 20.5,179.5C 17.9078,169.037 16.9078,158.37 17.5,147.5C 18.1667,144.833 18.8333,142.167 19.5,139.5 Z"/></g>
<g><path style="opacity:0.38" fill="#6ea9e6" d="M 31.5,177.5 C 33.5587,179.26 34.892,181.594 35.5,184.5C 33.412,182.664 32.0787,180.331 31.5,177.5 Z"/></g>
<g><path style="opacity:0.875" fill="#62a0e2" d="M 26.5,176.5 C 27.6572,179.273 28.3239,182.273 28.5,185.5C 27.8826,185.389 27.3826,185.056 27,184.5C 26.5026,181.854 26.3359,179.187 26.5,176.5 Z"/></g>
<g><path style="opacity:0.675" fill="#7db2df" d="M 57.5,179.5 C 58.8955,183.591 59.5621,187.924 59.5,192.5C 58.8826,192.389 58.3826,192.056 58,191.5C 57.5012,187.514 57.3345,183.514 57.5,179.5 Z"/></g>
<g><path style="opacity:0.929" fill="#5798de" d="M 35.5,184.5 C 36.8333,185.5 38.1667,186.5 39.5,187.5C 40.9095,190.95 41.5762,194.616 41.5,198.5C 38.5422,194.309 36.5422,189.642 35.5,184.5 Z"/></g>
<g><path style="opacity:0.996" fill="#5e9de5" d="M 260.5,143.5 C 261.492,151.316 261.826,159.316 261.5,167.5C 261.167,172.833 260.833,178.167 260.5,183.5C 259.542,183.953 258.708,184.619 258,185.5C 256.057,190.494 253.557,195.16 250.5,199.5C 250.833,200.167 251.167,200.833 251.5,201.5C 249.978,202.562 248.312,203.229 246.5,203.5C 251.53,194.913 255.697,185.913 259,176.5C 260.319,165.544 260.819,154.544 260.5,143.5 Z"/></g>
<g><path style="opacity:1" fill="#187ae0" d="M 55.5,172.5 C 56.1667,174.833 56.8333,177.167 57.5,179.5C 57.3345,183.514 57.5012,187.514 58,191.5C 58.3826,192.056 58.8826,192.389 59.5,192.5C 59.5,193.833 59.5,195.167 59.5,196.5C 58.2101,195.942 57.3768,194.942 57,193.5C 56.2286,186.515 55.7286,179.515 55.5,172.5 Z"/></g>
<g><path style="opacity:0.984" fill="#468cd9" d="M 20.5,179.5 C 21.4959,179.414 22.3292,179.748 23,180.5C 24.0622,185.436 25.7289,190.102 28,194.5C 28.4974,191.854 28.6641,189.187 28.5,186.5C 29.4345,187.568 29.7678,188.901 29.5,190.5C 29.3573,192.262 29.6906,193.929 30.5,195.5C 30.1445,196.522 29.4778,197.189 28.5,197.5C 27.5041,197.586 26.6708,197.252 26,196.5C 23.66,190.981 21.8267,185.314 20.5,179.5 Z"/></g>
<g><path style="opacity:0.69" fill="#5295d8" d="M 41.5,199.5 C 42.4959,199.414 43.3292,199.748 44,200.5C 44.2321,201.737 44.7321,202.737 45.5,203.5C 46.7298,205.297 47.3964,207.297 47.5,209.5C 45.0116,206.534 43.0116,203.201 41.5,199.5 Z"/></g>
<g><path style="opacity:0.455" fill="#6ed4ff" d="M 258.5,204.5 C 258.573,206.027 257.906,207.027 256.5,207.5C 256.427,205.973 257.094,204.973 258.5,204.5 Z"/></g>
<g><path style="opacity:0.525" fill="#81bae5" d="M 244.5,205.5 C 244.5,206.167 244.5,206.833 244.5,207.5C 243.5,208.167 242.5,208.833 241.5,209.5C 241.738,207.596 242.738,206.262 244.5,205.5 Z"/></g>
<g><path style="opacity:0.545" fill="#699dc9" d="M 29.5,190.5 C 32.442,199.895 36.1087,209.061 40.5,218C 39.0039,218.507 37.8373,218.007 37,216.5C 33.5888,210.351 30.7555,204.018 28.5,197.5C 29.4778,197.189 30.1445,196.522 30.5,195.5C 29.6906,193.929 29.3573,192.262 29.5,190.5 Z"/></g>
<g><path style="opacity:1" fill="#5999db" d="M 59.5,192.5 C 62.2617,198.167 64.4284,204.167 66,210.5C 66.7921,212.644 68.2921,213.977 70.5,214.5C 70.5,215.167 70.5,215.833 70.5,216.5C 70.8417,217.338 71.5084,217.672 72.5,217.5C 72.6309,218.376 72.2975,219.043 71.5,219.5C 70.6043,218.494 69.9377,218.494 69.5,219.5C 69.8555,220.522 70.5222,221.189 71.5,221.5C 72.5,221.833 73.1667,222.5 73.5,223.5C 68.8176,223.125 67.4843,220.792 69.5,216.5C 68.086,215.376 66.586,214.376 65,213.5C 63.5742,209.323 62.0742,205.323 60.5,201.5C 60.3713,199.784 60.038,198.117 59.5,196.5C 59.5,195.167 59.5,193.833 59.5,192.5 Z"/></g>
<g><path style="opacity:0.616" fill="#5e9fda" d="M 47.5,210.5 C 50.5616,211.268 52.2283,213.268 52.5,216.5C 50.1097,215.109 48.4431,213.109 47.5,210.5 Z"/></g>
<g><path style="opacity:0.251" fill="#b2e8ff" d="M 240.5,211.5 C 240.573,213.027 239.906,214.027 238.5,214.5C 238.427,212.973 239.094,211.973 240.5,211.5 Z"/></g>
<g><path style="opacity:0.569" fill="#96c1d9" d="M 79.5,223.5 C 78.6236,223.369 77.9569,223.702 77.5,224.5C 77.8801,228.285 76.8801,228.285 74.5,224.5C 75.2389,224.631 75.9056,224.464 76.5,224C 75.7476,223.329 75.4142,222.496 75.5,221.5C 75.2624,219.596 74.2624,218.262 72.5,217.5C 71.5084,217.672 70.8417,217.338 70.5,216.5C 71.8333,215.833 71.8333,215.167 70.5,214.5C 69.6295,211.888 68.9628,209.221 68.5,206.5C 69.675,206.281 70.675,206.614 71.5,207.5C 74.6787,212.65 77.3453,217.983 79.5,223.5 Z"/></g>
<g><path style="opacity:0.788" fill="#5a9adc" d="M 286.5,207.5 C 287.167,207.5 287.833,207.5 288.5,207.5C 286.868,213.43 284.202,218.764 280.5,223.5C 281.599,217.728 283.599,212.395 286.5,207.5 Z"/></g>
<g><path style="opacity:0.573" fill="#5f9bd7" d="M 52.5,217.5 C 53.675,217.281 54.675,217.614 55.5,218.5C 57.297,219.695 58.297,221.362 58.5,223.5C 56.1667,221.833 54.1667,219.833 52.5,217.5 Z"/></g>
<g><path style="opacity:0.663" fill="#8ebbd3" d="M 85.5,221.5 C 84.4168,221.461 83.4168,221.127 82.5,220.5C 81.7025,220.957 81.3691,221.624 81.5,222.5C 79.7868,221.365 79.1201,219.698 79.5,217.5C 82.2921,217.622 84.2921,218.956 85.5,221.5 Z"/></g>
<g><path style="opacity:0.12" fill="#a4f4ff" d="M 246.5,220.5 C 246.062,220.565 245.728,220.399 245.5,220C 247.041,218.629 248.375,217.129 249.5,215.5C 249.5,215.167 249.5,214.833 249.5,214.5C 250.458,214.047 251.292,213.381 252,212.5C 251.448,215.906 249.615,218.572 246.5,220.5 Z"/></g>
<g><path style="opacity:0.008" fill="#c5f2fa" d="M 72.5,217.5 C 74.2624,218.262 75.2624,219.596 75.5,221.5C 74.0387,220.314 72.7054,220.314 71.5,221.5C 70.5222,221.189 69.8555,220.522 69.5,219.5C 69.9377,218.494 70.6043,218.494 71.5,219.5C 72.2975,219.043 72.6309,218.376 72.5,217.5 Z"/></g>
<g><path style="opacity:0.745" fill="#95c7e7" d="M 235.5,217.5 C 235.5,219.5 236.5,220.5 238.5,220.5C 238.5,220.833 238.5,221.167 238.5,221.5C 236.938,221.733 235.605,222.4 234.5,223.5C 235.765,220.437 234.765,219.77 231.5,221.5C 231.894,219.29 233.227,217.957 235.5,217.5 Z"/></g>
<g><path style="opacity:0.941" fill="#3c87d2" d="M 244.5,207.5 C 244.297,209.044 243.63,210.378 242.5,211.5C 244.045,212.452 245.712,212.785 247.5,212.5C 247.285,214.179 247.952,215.179 249.5,215.5C 248.375,217.129 247.041,218.629 245.5,220C 245.728,220.399 246.062,220.565 246.5,220.5C 246.088,222.887 245.088,224.887 243.5,226.5C 244.354,224.965 244.354,223.632 243.5,222.5C 242.167,222.5 241.5,221.833 241.5,220.5C 242.785,218.548 244.451,216.882 246.5,215.5C 244.182,214.166 242.515,214.832 241.5,217.5C 239.786,216.391 239.119,217.058 239.5,219.5C 239.5,220.167 239.167,220.5 238.5,220.5C 236.5,220.5 235.5,219.5 235.5,217.5C 236.167,216.167 237.167,215.167 238.5,214.5C 239.906,214.027 240.573,213.027 240.5,211.5C 240.328,210.508 240.662,209.842 241.5,209.5C 242.5,208.833 243.5,208.167 244.5,207.5 Z"/></g>
<g><path style="opacity:0.082" fill="#b5f4fe" d="M 241.5,220.5 C 241.591,218.302 240.925,217.969 239.5,219.5C 239.119,217.058 239.786,216.391 241.5,217.5C 242.515,214.832 244.182,214.166 246.5,215.5C 244.451,216.882 242.785,218.548 241.5,220.5 Z"/></g>
<g><path style="opacity:0.949" fill="#377cbb" d="M 234.5,223.5 C 233.143,224.685 231.643,225.685 230,226.5C 228.316,226.317 228.15,225.65 229.5,224.5C 230.906,224.027 231.573,223.027 231.5,221.5C 234.765,219.77 235.765,220.437 234.5,223.5 Z"/></g>
<g><path style="opacity:0.11" fill="#c2ecfc" d="M 231.5,221.5 C 231.573,223.027 230.906,224.027 229.5,224.5C 229.427,222.973 230.094,221.973 231.5,221.5 Z"/></g>
<g><path style="opacity:0.11" fill="#b8f2ff" d="M 243.5,222.5 C 244.354,223.632 244.354,224.965 243.5,226.5C 242.833,226.833 242.167,227.167 241.5,227.5C 241.5,226.833 241.5,226.167 241.5,225.5C 242.833,225.167 242.833,224.833 241.5,224.5C 242.167,223.833 242.833,223.167 243.5,222.5 Z"/></g>
<g><path style="opacity:1" fill="#2383e8" d="M 258.5,204.5 C 257.094,204.973 256.427,205.973 256.5,207.5C 256.121,211.049 254.621,214.049 252,216.5C 251.242,218.769 251.409,220.936 252.5,223C 251.333,223.5 250.5,224.333 250,225.5C 247.054,222.457 245.888,223.124 246.5,227.5C 245.5,227.5 244.5,227.5 243.5,227.5C 243.5,228.833 243.5,230.167 243.5,231.5C 242.07,231.421 240.736,231.754 239.5,232.5C 237.476,235.206 234.81,236.539 231.5,236.5C 234.06,234.727 236.393,232.727 238.5,230.5C 240.5,230.5 241.5,229.5 241.5,227.5C 242.167,227.167 242.833,226.833 243.5,226.5C 245.088,224.887 246.088,222.887 246.5,220.5C 249.615,218.572 251.448,215.906 252,212.5C 251.292,213.381 250.458,214.047 249.5,214.5C 249.5,213.5 249.5,212.5 249.5,211.5C 251.903,211.607 253.736,210.607 255,208.5C 255.17,206.285 255.837,204.285 257,202.5C 257.667,203.833 258.333,203.833 259,202.5C 259.692,203.437 259.525,204.103 258.5,204.5 Z"/></g>
<g><path style="opacity:0.863" fill="#76acd3" d="M 241.5,220.5 C 241.5,221.833 242.167,222.5 243.5,222.5C 242.833,223.167 242.167,223.833 241.5,224.5C 241.5,224.833 241.5,225.167 241.5,225.5C 240.5,226.167 239.5,226.833 238.5,227.5C 236.965,228.354 235.632,228.354 234.5,227.5C 234.5,226.833 234.5,226.167 234.5,225.5C 236.167,224.5 237.5,223.167 238.5,221.5C 239.609,221.443 240.609,221.11 241.5,220.5 Z"/></g>
<g><path style="opacity:0.682" fill="#84bceb" d="M 59.5,225.5 C 61.4456,226.035 62.4456,227.368 62.5,229.5C 61.0256,228.564 60.0256,227.23 59.5,225.5 Z"/></g>
<g><path style="opacity:0.024" fill="#c2e8f5" d="M 234.5,223.5 C 234.5,224.167 234.5,224.833 234.5,225.5C 233.115,226.614 231.615,227.614 230,228.5C 227.148,227.093 226.982,225.759 229.5,224.5C 228.15,225.65 228.316,226.317 230,226.5C 231.643,225.685 233.143,224.685 234.5,223.5 Z"/></g>
<g><path style="opacity:0.992" fill="#3685d8" d="M 73.5,223.5 C 74.1667,223.5 74.5,223.833 74.5,224.5C 76.8801,228.285 77.8801,228.285 77.5,224.5C 77.9569,223.702 78.6236,223.369 79.5,223.5C 81.2624,224.262 82.2624,225.596 82.5,227.5C 82.5,228.833 81.8333,229.5 80.5,229.5C 79.2931,229.378 78.6264,230.378 78.5,232.5C 77.8745,230.374 76.5411,228.707 74.5,227.5C 73.5713,226.311 73.238,224.978 73.5,223.5 Z"/></g>
<g><path style="opacity:0.847" fill="#8fcdec" d="M 83.5,224.5 C 85.0174,224.511 86.1841,225.177 87,226.5C 87.7845,228.286 88.9512,229.786 90.5,231C 89.2264,231.977 89.2264,232.811 90.5,233.5C 91.6256,234.858 91.6256,236.192 90.5,237.5C 89.8933,237.376 89.56,237.043 89.5,236.5C 89.2671,234.938 88.6005,233.605 87.5,232.5C 88.0164,231.242 87.3497,230.242 85.5,229.5C 85.6085,227.486 84.9418,225.82 83.5,224.5 Z"/></g>
<g><path style="opacity:0.824" fill="#5594ca" d="M 85.5,221.5 C 88.5162,224.52 91.1829,227.854 93.5,231.5C 91.9731,231.427 90.9731,232.094 90.5,233.5C 89.2264,232.811 89.2264,231.977 90.5,231C 88.9512,229.786 87.7845,228.286 87,226.5C 86.1841,225.177 85.0174,224.511 83.5,224.5C 82.5,224.167 81.8333,223.5 81.5,222.5C 81.3691,221.624 81.7025,220.957 82.5,220.5C 83.4168,221.127 84.4168,221.461 85.5,221.5 Z"/></g>
<g><path style="opacity:0.275" fill="#b3d7e7" d="M 234.5,227.5 C 235.632,228.354 236.965,228.354 238.5,227.5C 234.86,230.131 231.193,232.797 227.5,235.5C 228.29,234.206 229.29,233.039 230.5,232C 229.906,231.536 229.239,231.369 228.5,231.5C 230.609,230.35 232.609,229.016 234.5,227.5 Z"/></g>
<g><path style="opacity:0.443" fill="#86bfec" d="M 241.5,227.5 C 241.5,229.5 240.5,230.5 238.5,230.5C 239.167,229.167 240.167,228.167 241.5,227.5 Z"/></g>
<g><path style="opacity:0.761" fill="#5899d0" d="M 82.5,227.5 C 83.7777,227.782 84.7777,228.449 85.5,229.5C 85.5569,230.609 85.8902,231.609 86.5,232.5C 85.5,232.5 84.5,232.5 83.5,232.5C 82.3065,231.728 81.3065,230.728 80.5,229.5C 81.8333,229.5 82.5,228.833 82.5,227.5 Z"/></g>
<g><path style="opacity:0.086" fill="#9fe8fb" d="M 80.5,229.5 C 81.3065,230.728 82.3065,231.728 83.5,232.5C 83.8588,234.371 84.8588,235.871 86.5,237C 86.1667,237.167 85.8333,237.333 85.5,237.5C 83.3134,235.578 80.9801,233.912 78.5,232.5C 78.6264,230.378 79.2931,229.378 80.5,229.5 Z"/></g>
<g><path style="opacity:0.482" fill="#89bde5" d="M 93.5,231.5 C 96.1979,231.845 98.1979,233.178 99.5,235.5C 97.0337,234.702 95.0337,233.369 93.5,231.5 Z"/></g>
<g><path style="opacity:0.743" fill="#40719f" d="M 228.5,231.5 C 229.239,231.369 229.906,231.536 230.5,232C 229.29,233.039 228.29,234.206 227.5,235.5C 226.761,235.631 226.094,235.464 225.5,235C 226.71,233.961 227.71,232.794 228.5,231.5 Z"/></g>
<g><path style="opacity:0.659" fill="#a4c5d7" d="M 228.5,231.5 C 227.71,232.794 226.71,233.961 225.5,235C 226.094,235.464 226.761,235.631 227.5,235.5C 225.684,237.137 223.684,238.637 221.5,240C 219.926,240.699 218.593,240.365 217.5,239C 220.878,235.985 224.544,233.485 228.5,231.5 Z"/></g>
<g><path style="opacity:0.698" fill="#5392d7" d="M 62.5,229.5 C 64.7122,232.866 67.2122,236.199 70,239.5C 70.49,240.793 70.6567,242.127 70.5,243.5C 66.8065,239.449 64.1398,234.783 62.5,229.5 Z"/></g>
<g><path style="opacity:0.482" fill="#8cc1e7" d="M 99.5,235.5 C 100.906,235.973 101.573,236.973 101.5,238.5C 100.094,238.027 99.427,237.027 99.5,235.5 Z"/></g>
<g><path style="opacity:1" fill="#0d7ff7" d="M 60.5,201.5 C 62.0742,205.323 63.5742,209.323 65,213.5C 66.586,214.376 68.086,215.376 69.5,216.5C 67.4843,220.792 68.8176,223.125 73.5,223.5C 73.238,224.978 73.5713,226.311 74.5,227.5C 76.5411,228.707 77.8745,230.374 78.5,232.5C 79.5676,234.74 81.2342,236.574 83.5,238C 85.7163,238.393 87.7163,237.893 89.5,236.5C 89.56,237.043 89.8933,237.376 90.5,237.5C 91.6256,236.192 91.6256,234.858 90.5,233.5C 90.9731,232.094 91.9731,231.427 93.5,231.5C 95.0337,233.369 97.0337,234.702 99.5,235.5C 99.427,237.027 100.094,238.027 101.5,238.5C 101.833,238.5 102.167,238.5 102.5,238.5C 102.5,240.5 103.5,241.5 105.5,241.5C 106.312,244.275 107.979,246.442 110.5,248C 113.764,248.638 116.764,249.804 119.5,251.5C 120.492,251.328 121.158,251.662 121.5,252.5C 123.972,253.909 126.305,255.576 128.5,257.5C 128.918,258.222 129.584,258.722 130.5,259C 129.167,260 129.167,261 130.5,262C 128.681,262.74 127.348,263.907 126.5,265.5C 123.515,264.674 120.849,263.341 118.5,261.5C 115.958,259.581 113.291,257.748 110.5,256C 108.655,254.872 106.655,254.372 104.5,254.5C 104.027,253.094 103.027,252.427 101.5,252.5C 100.5,252.167 99.8333,251.5 99.5,250.5C 98.8505,248.565 98.5172,246.565 98.5,244.5C 87.8978,244.217 86.7312,247.551 95,254.5C 95.414,254.043 95.914,253.709 96.5,253.5C 98.9334,255.012 101.267,256.678 103.5,258.5C 104.736,259.246 106.07,259.579 107.5,259.5C 107.937,261.074 108.937,262.241 110.5,263C 113.279,263.561 115.946,264.394 118.5,265.5C 118.833,265.5 119.167,265.5 119.5,265.5C 121.267,267.89 123.6,269.557 126.5,270.5C 126.631,271.376 126.298,272.043 125.5,272.5C 122.426,270.404 119.093,269.237 115.5,269C 116.308,269.308 116.975,269.808 117.5,270.5C 117.154,271.696 116.654,271.696 116,270.5C 115.544,271.744 116.044,272.577 117.5,273C 116.833,273.333 116.167,273.667 115.5,274C 116.381,274.708 117.047,275.542 117.5,276.5C 115.148,275.434 112.814,274.267 110.5,273C 108.19,272.503 105.857,272.337 103.5,272.5C 103.027,271.094 102.027,270.427 100.5,270.5C 100.027,269.094 99.0269,268.427 97.5,268.5C 94.8368,265.086 91.8368,261.92 88.5,259C 87.2068,258.51 85.8734,258.343 84.5,258.5C 84.4431,257.391 84.1098,256.391 83.5,255.5C 83.6495,254.448 83.4828,253.448 83,252.5C 81.3091,249.641 78.8091,248.308 75.5,248.5C 75.8174,244.828 74.1507,243.162 70.5,243.5C 70.6567,242.127 70.49,240.793 70,239.5C 67.2122,236.199 64.7122,232.866 62.5,229.5C 62.4456,227.368 61.4456,226.035 59.5,225.5C 58.6618,225.158 58.3284,224.492 58.5,223.5C 58.297,221.362 57.297,219.695 55.5,218.5C 54.675,217.614 53.675,217.281 52.5,217.5C 52.5,217.167 52.5,216.833 52.5,216.5C 52.2283,213.268 50.5616,211.268 47.5,210.5C 47.5,210.167 47.5,209.833 47.5,209.5C 47.3964,207.297 46.7298,205.297 45.5,203.5C 47.6138,204.36 48.7805,206.027 49,208.5C 49.414,208.043 49.914,207.709 50.5,207.5C 51.1667,208.5 51.8333,209.5 52.5,210.5C 54.557,208.731 56.3903,206.731 58,204.5C 58.3076,205.308 58.8076,205.975 59.5,206.5C 60.4519,204.955 60.7852,203.288 60.5,201.5 Z"/></g>
<g><path style="opacity:1" fill="#2e85d9" d="M 78.5,232.5 C 80.9801,233.912 83.3134,235.578 85.5,237.5C 85.8333,237.333 86.1667,237.167 86.5,237C 84.8588,235.871 83.8588,234.371 83.5,232.5C 84.5,232.5 85.5,232.5 86.5,232.5C 86.8333,232.5 87.1667,232.5 87.5,232.5C 88.6005,233.605 89.2671,234.938 89.5,236.5C 87.7163,237.893 85.7163,238.393 83.5,238C 81.2342,236.574 79.5676,234.74 78.5,232.5 Z"/></g>
<g><path style="opacity:0.592" fill="#7cbeec" d="M 231.5,236.5 C 231.5,238.5 230.5,239.5 228.5,239.5C 229.167,238.167 230.167,237.167 231.5,236.5 Z"/></g>
<g><path style="opacity:0.298" fill="#93cdf2" d="M 102.5,238.5 C 103.833,239.167 104.833,240.167 105.5,241.5C 103.5,241.5 102.5,240.5 102.5,238.5 Z"/></g>
<g><path style="opacity:1" fill="#5396da" d="M 228.5,239.5 C 228.241,243.068 226.241,244.401 222.5,243.5C 224.147,241.674 226.147,240.34 228.5,239.5 Z"/></g>
<g><path style="opacity:1" fill="#3389e6" d="M 99.5,250.5 C 97.6064,249.952 95.9397,248.952 94.5,247.5C 93.479,248.002 93.3123,248.668 94,249.5C 98.683,252.697 103.183,256.03 107.5,259.5C 106.07,259.579 104.736,259.246 103.5,258.5C 101.267,256.678 98.9334,255.012 96.5,253.5C 95.914,253.709 95.414,254.043 95,254.5C 86.7312,247.551 87.8978,244.217 98.5,244.5C 98.5172,246.565 98.8505,248.565 99.5,250.5 Z"/></g>
<g><path style="opacity:0.8" fill="#65a1dc" d="M 105.5,241.5 C 110.204,244.846 114.871,248.179 119.5,251.5C 116.764,249.804 113.764,248.638 110.5,248C 107.979,246.442 106.312,244.275 105.5,241.5 Z"/></g>
<g><path style="opacity:1" fill="#3384e1" d="M 70.5,243.5 C 74.1507,243.162 75.8174,244.828 75.5,248.5C 78.8091,248.308 81.3091,249.641 83,252.5C 83.4828,253.448 83.6495,254.448 83.5,255.5C 82.3951,254.4 81.0618,253.733 79.5,253.5C 79.5,251.5 78.5,250.5 76.5,250.5C 73.7805,248.781 71.7805,246.447 70.5,243.5 Z"/></g>
<g><path style="opacity:0.58" fill="#8ac3e7" d="M 76.5,250.5 C 78.5,250.5 79.5,251.5 79.5,253.5C 78.1667,252.833 77.1667,251.833 76.5,250.5 Z"/></g>
<g><path style="opacity:0.549" fill="#7abae7" d="M 101.5,252.5 C 103.027,252.427 104.027,253.094 104.5,254.5C 102.973,254.573 101.973,253.906 101.5,252.5 Z"/></g>
<g><path style="opacity:1" fill="#4c91e4" d="M 280.5,223.5 C 273.075,236.315 263.742,247.648 252.5,257.5C 252.5,255.5 252.5,253.5 252.5,251.5C 253.833,251.5 255.167,251.5 256.5,251.5C 256.5,250.5 256.5,249.5 256.5,248.5C 257.833,248.5 259.167,248.5 260.5,248.5C 260.67,247.178 260.337,246.011 259.5,245C 260.325,243.312 261.325,243.145 262.5,244.5C 263.281,243.271 263.781,241.938 264,240.5C 264.333,241.167 264.667,241.833 265,242.5C 266.438,241.1 267.271,239.433 267.5,237.5C 268.5,237.5 269.5,237.5 270.5,237.5C 271.708,234.081 273.208,230.747 275,227.5C 276.147,225.181 277.981,223.848 280.5,223.5 Z"/></g>
<g><path style="opacity:0.467" fill="#9ecfef" d="M 79.5,253.5 C 81.0618,253.733 82.3951,254.4 83.5,255.5C 84.1098,256.391 84.4431,257.391 84.5,258.5C 82.5,257.167 80.8333,255.5 79.5,253.5 Z"/></g>
<g><path style="opacity:0.741" fill="#64a4e0" d="M 206.5,250.5 C 206.586,251.496 206.252,252.329 205.5,253C 200.757,253.529 196.091,254.362 191.5,255.5C 196.293,253.465 201.293,251.798 206.5,250.5 Z"/></g>
<g><path style="opacity:0.8" fill="#5395de" d="M 104.5,254.5 C 106.655,254.372 108.655,254.872 110.5,256C 113.291,257.748 115.958,259.581 118.5,261.5C 113.338,259.967 108.671,257.634 104.5,254.5 Z"/></g>
<g><path style="opacity:0.927" fill="#619ede" d="M 121.5,252.5 C 128.231,254.637 134.898,256.637 141.5,258.5C 137.119,258.628 132.785,258.295 128.5,257.5C 126.305,255.576 123.972,253.909 121.5,252.5 Z"/></g>
<g><path style="opacity:1" fill="#1e80ea" d="M 222.5,243.5 C 221.323,245.032 219.989,246.532 218.5,248C 210.97,251.849 203.303,255.516 195.5,259C 187.406,260.225 179.072,261.058 170.5,261.5C 172.833,260.833 175.167,260.167 177.5,259.5C 182.325,258.331 186.991,256.998 191.5,255.5C 196.091,254.362 200.757,253.529 205.5,253C 206.252,252.329 206.586,251.496 206.5,250.5C 211.531,247.655 216.864,245.322 222.5,243.5 Z"/></g>
<g><path style="opacity:0.325" fill="#7dbbe8" d="M 191.5,255.5 C 186.991,256.998 182.325,258.331 177.5,259.5C 177.983,257.13 179.149,256.463 181,257.5C 184.285,255.863 187.785,255.196 191.5,255.5 Z"/></g>
<g><path style="opacity:0.937" fill="#5d9cdf" d="M 84.5,258.5 C 85.8734,258.343 87.2068,258.51 88.5,259C 91.8368,261.92 94.8368,265.086 97.5,268.5C 92.591,265.926 88.2577,262.592 84.5,258.5 Z"/></g>
<g><path style="opacity:0.784" fill="#72a8e4" d="M 141.5,258.5 C 145.387,258.646 149.054,259.313 152.5,260.5C 149.482,260.665 146.482,260.498 143.5,260C 142.584,259.722 141.918,259.222 141.5,258.5 Z"/></g>
<g><path style="opacity:0.91" fill="#488fd6" d="M 177.5,259.5 C 175.167,260.167 172.833,260.833 170.5,261.5C 168.5,261.5 166.5,261.5 164.5,261.5C 160.629,261.815 156.962,261.482 153.5,260.5C 159.879,260.108 166.212,259.441 172.5,258.5C 174.071,259.309 175.738,259.643 177.5,259.5 Z"/></g>
<g><path style="opacity:1" fill="#2682ec" d="M 128.5,257.5 C 132.785,258.295 137.119,258.628 141.5,258.5C 141.918,259.222 142.584,259.722 143.5,260C 146.482,260.498 149.482,260.665 152.5,260.5C 152.833,260.5 153.167,260.5 153.5,260.5C 156.962,261.482 160.629,261.815 164.5,261.5C 157.679,262.655 150.679,262.821 143.5,262C 140.464,259.994 137.131,259.16 133.5,259.5C 133.317,261.936 133.984,264.103 135.5,266C 134.107,267.171 133.273,268.671 133,270.5C 131.044,270.784 128.877,270.784 126.5,270.5C 123.6,269.557 121.267,267.89 119.5,265.5C 121.865,266.008 124.199,266.675 126.5,267.5C 127.463,267.03 127.463,266.363 126.5,265.5C 127.348,263.907 128.681,262.74 130.5,262C 129.167,261 129.167,260 130.5,259C 129.584,258.722 128.918,258.222 128.5,257.5 Z"/></g>
<g><path style="opacity:0.847" fill="#4d93db" d="M 107.5,259.5 C 111.655,260.742 115.322,262.742 118.5,265.5C 115.946,264.394 113.279,263.561 110.5,263C 108.937,262.241 107.937,261.074 107.5,259.5 Z"/></g>
<g><path style="opacity:1" fill="#468de3" d="M 251.5,257.5 C 241.844,266.466 230.844,273.466 218.5,278.5C 218.539,277.417 218.873,276.417 219.5,275.5C 223.598,274.901 227.265,273.567 230.5,271.5C 230.5,270.5 230.5,269.5 230.5,268.5C 232.199,268.66 233.866,268.494 235.5,268C 236.676,265.875 238.009,264.041 239.5,262.5C 241.167,262.5 242.833,262.5 244.5,262.5C 244.714,260.856 244.38,259.356 243.5,258C 246.146,257.503 248.813,257.336 251.5,257.5 Z"/></g>
<g><path style="opacity:0.275" fill="#79b8e0" d="M 97.5,268.5 C 99.0269,268.427 100.027,269.094 100.5,270.5C 98.9731,270.573 97.9731,269.906 97.5,268.5 Z"/></g>
<g><path style="opacity:0.212" fill="#91c3f0" d="M 100.5,270.5 C 102.027,270.427 103.027,271.094 103.5,272.5C 101.973,272.573 100.973,271.906 100.5,270.5 Z"/></g>
<g><path style="opacity:1" fill="#468ddc" d="M 103.5,272.5 C 105.857,272.337 108.19,272.503 110.5,273C 112.814,274.267 115.148,275.434 117.5,276.5C 121.33,279.821 125.997,281.655 131.5,282C 132.381,282.708 133.047,283.542 133.5,284.5C 122.736,282.249 112.736,278.249 103.5,272.5 Z"/></g>
<g><path style="opacity:0.784" fill="#5194dc" d="M 217.5,278.5 C 211.338,282 204.671,284.333 197.5,285.5C 197.611,284.883 197.944,284.383 198.5,284C 204.814,282.006 211.147,280.173 217.5,278.5 Z"/></g>
<g><path style="opacity:0.451" fill="#61a0da" d="M 133.5,284.5 C 136.152,284.41 138.485,285.076 140.5,286.5C 137.848,286.59 135.515,285.924 133.5,284.5 Z"/></g>
<g><path style="opacity:0.698" fill="#5497d9" d="M 140.5,286.5 C 145.75,286.302 150.75,286.969 155.5,288.5C 150.269,288.556 145.269,287.889 140.5,286.5 Z"/></g>
<g><path style="opacity:0.672" fill="#5193da" d="M 197.5,285.5 C 187.777,288.009 177.777,289.676 167.5,290.5C 163.287,290.282 159.287,289.616 155.5,288.5C 169.583,288.597 183.583,287.597 197.5,285.5 Z"/></g>
</svg>
